# xmcd
#
# Track frame offsets: 
#        150
#        21687
#        46830
#        67335
#        89715
#        111010
#        136820
#        154270
#        177602
#        199840
#        222727
#        244402
#        253237
#
# Disc length: 3591 seconds
#
# Revision: 15
# Processed by: cddbd v1.5.2PL0 Copyright (c) Steve Scherf et al.
# Submitted via: ExactAudioCopy v1.0b3
#
DISCID=d70e050d
DTITLE=THE GOSPELLERS - Love Notes
DYEAR=2001
DGENRE=JPop
TTITLE0=Promise -a cappella-
TTITLE1=永遠に
TTITLE2=NO MORE TEARS
TTITLE3=八角の館
TTITLE4=U'll Be Mine -acoustic version-
TTITLE5=AIR MAIL
TTITLE6=t.4.2.
TTITLE7=渇き
TTITLE8=LOSER
TTITLE9=I LOVE YOU, BABY
TTITLE10=あたらしい世界
TTITLE11=カーテンコール
TTITLE12=ひとり
EXTD=YEAR: 2001
EXTT0=
EXTT1=
EXTT2=
EXTT3=
EXTT4=
EXTT5=
EXTT6=
EXTT7=
EXTT8=
EXTT9=
EXTT10=
EXTT11=
EXTT12=
PLAYORDER=
